<svg height="3870" width="720" xmlns="http://www.w3.org/2000/svg">
<rect height="3870" fill="#555" width="720"></rect>
<text fill="#7f7" font-family="Courier New" font-size="12" xml:space="preserve">
<tspan x="10" y="26">108 megabytes installed</tspan>
<tspan x="10" y="42"></tspan>
<tspan x="10" y="58">node_modules</tspan>
<tspan x="10" y="74">└─┬ fis@1.10.5 </tspan>
<tspan x="10" y="90">  ├── colors@0.6.2 </tspan>
<tspan x="10" y="106">  ├─┬ commander@1.3.2 </tspan>
<tspan x="10" y="122">  │ └── keypress@0.1.0 </tspan>
<tspan x="10" y="138">  ├─┬ fis-command-install@0.2.15 </tspan>
<tspan x="10" y="154">  │ ├── bluebird@2.11.0 </tspan>
<tspan x="10" y="170">  │ ├─┬ findup@0.1.5 </tspan>
<tspan x="10" y="186">  │ │ └── commander@2.1.0 </tspan>
<tspan x="10" y="202">  │ ├─┬ fis-scaffold-kernel@0.1.2 </tspan>
<tspan x="10" y="218">  │ │ ├── adm-zip@0.4.4 </tspan>
<tspan x="10" y="234">  │ │ ├─┬ debug@2.1.0 </tspan>
<tspan x="10" y="250">  │ │ │ └── ms@0.6.2 </tspan>
<tspan x="10" y="266">  │ │ ├─┬ fis-repo-client@0.1.14 </tspan>
<tspan x="10" y="282">  │ │ │ ├── adm-zip@0.4.3 </tspan>
<tspan x="10" y="298">  │ │ │ ├─┬ archiver@0.4.9 </tspan>
<tspan x="10" y="314">  │ │ │ │ ├── iconv-lite@0.2.11 </tspan>
<tspan x="10" y="330">  │ │ │ │ └─┬ readable-stream@1.0.34 </tspan>
<tspan x="10" y="346">  │ │ │ │   ├── isarray@0.0.1 </tspan>
<tspan x="10" y="362">  │ │ │ │   └── string_decoder@0.10.31 </tspan>
<tspan x="10" y="378">  │ │ │ ├── debug@0.8.0 </tspan>
<tspan x="10" y="394">  │ │ │ ├─┬ form-data@0.1.4 </tspan>
<tspan x="10" y="410">  │ │ │ │ ├── async@0.9.2 </tspan>
<tspan x="10" y="426">  │ │ │ │ └─┬ combined-stream@0.0.7 </tspan>
<tspan x="10" y="442">  │ │ │ │   └── delayed-stream@0.0.5 </tspan>
<tspan x="10" y="458">  │ │ │ ├── iconv-lite@0.2.11 </tspan>
<tspan x="10" y="474">  │ │ │ ├── ignore@2.2.7 </tspan>
<tspan x="10" y="490">  │ │ │ ├── ini@1.0.0 </tspan>
<tspan x="10" y="506">  │ │ │ ├── js-base64@2.1.2 </tspan>
<tspan x="10" y="522">  │ │ │ ├── q@1.0.1 </tspan>
<tspan x="10" y="538">  │ │ │ └─┬ request@2.27.0 </tspan>
<tspan x="10" y="554">  │ │ │   ├── aws-sign@0.3.0 </tspan>
<tspan x="10" y="570">  │ │ │   ├── cookie-jar@0.3.0 </tspan>
<tspan x="10" y="586">  │ │ │   ├── forever-agent@0.5.2 </tspan>
<tspan x="10" y="602">  │ │ │   ├─┬ hawk@1.0.0 </tspan>
<tspan x="10" y="618">  │ │ │   │ ├── boom@0.4.2 </tspan>
<tspan x="10" y="634">  │ │ │   │ ├── cryptiles@0.2.2 </tspan>
<tspan x="10" y="650">  │ │ │   │ ├── hoek@0.9.1 </tspan>
<tspan x="10" y="666">  │ │ │   │ └── sntp@0.2.4 </tspan>
<tspan x="10" y="682">  │ │ │   ├─┬ http-signature@0.10.1 </tspan>
<tspan x="10" y="698">  │ │ │   │ ├── asn1@0.1.11 </tspan>
<tspan x="10" y="714">  │ │ │   │ ├── assert-plus@0.1.5 </tspan>
<tspan x="10" y="730">  │ │ │   │ └── ctype@0.5.3 </tspan>
<tspan x="10" y="746">  │ │ │   ├── mime@1.2.11 </tspan>
<tspan x="10" y="762">  │ │ │   ├── node-uuid@1.4.8 </tspan>
<tspan x="10" y="778">  │ │ │   ├── oauth-sign@0.3.0 </tspan>
<tspan x="10" y="794">  │ │ │   ├── qs@0.6.6 </tspan>
<tspan x="10" y="810">  │ │ │   └── tunnel-agent@0.3.0 </tspan>
<tspan x="10" y="826">  │ │ ├── glob.js@0.1.0 </tspan>
<tspan x="10" y="842">  │ │ ├── iconv-lite@0.4.4 </tspan>
<tspan x="10" y="858">  │ │ ├── is-utf8@0.2.0 </tspan>
<tspan x="10" y="874">  │ │ ├── lodash@4.12.0 </tspan>
<tspan x="10" y="890">  │ │ └─┬ prompt@0.2.14 </tspan>
<tspan x="10" y="906">  │ │   ├─┬ utile@0.2.1 </tspan>
<tspan x="10" y="922">  │ │   │ ├── deep-equal@1.0.1 </tspan>
<tspan x="10" y="938">  │ │   │ └── ncp@0.4.2 </tspan>
<tspan x="10" y="954">  │ │   └─┬ winston@0.8.3 </tspan>
<tspan x="10" y="970">  │ │     └── pkginfo@0.3.1 </tspan>
<tspan x="10" y="986">  │ ├── progress@1.1.8 </tspan>
<tspan x="10" y="1002">  │ ├─┬ request@2.81.0 </tspan>
<tspan x="10" y="1018">  │ │ ├── aws-sign2@0.6.0 </tspan>
<tspan x="10" y="1034">  │ │ ├── aws4@1.6.0 </tspan>
<tspan x="10" y="1050">  │ │ ├── caseless@0.12.0 </tspan>
<tspan x="10" y="1066">  │ │ ├─┬ combined-stream@1.0.5 </tspan>
<tspan x="10" y="1082">  │ │ │ └── delayed-stream@1.0.0 </tspan>
<tspan x="10" y="1098">  │ │ ├── extend@3.0.0 </tspan>
<tspan x="10" y="1114">  │ │ ├── forever-agent@0.6.1 </tspan>
<tspan x="10" y="1130">  │ │ ├─┬ form-data@2.1.4 </tspan>
<tspan x="10" y="1146">  │ │ │ └── asynckit@0.4.0 </tspan>
<tspan x="10" y="1162">  │ │ ├─┬ har-validator@4.2.1 </tspan>
<tspan x="10" y="1178">  │ │ │ ├─┬ ajv@4.11.7 </tspan>
<tspan x="10" y="1194">  │ │ │ │ ├── co@4.6.0 </tspan>
<tspan x="10" y="1210">  │ │ │ │ └─┬ json-stable-stringify@1.0.1 </tspan>
<tspan x="10" y="1226">  │ │ │ │   └── jsonify@0.0.0 </tspan>
<tspan x="10" y="1242">  │ │ │ └── har-schema@1.0.5 </tspan>
<tspan x="10" y="1258">  │ │ ├─┬ hawk@3.1.3 </tspan>
<tspan x="10" y="1274">  │ │ │ ├── boom@2.10.1 </tspan>
<tspan x="10" y="1290">  │ │ │ ├── cryptiles@2.0.5 </tspan>
<tspan x="10" y="1306">  │ │ │ ├── hoek@2.16.3 </tspan>
<tspan x="10" y="1322">  │ │ │ └── sntp@1.0.9 </tspan>
<tspan x="10" y="1338">  │ │ ├─┬ http-signature@1.1.1 </tspan>
<tspan x="10" y="1354">  │ │ │ ├── assert-plus@0.2.0 </tspan>
<tspan x="10" y="1370">  │ │ │ ├─┬ jsprim@1.4.0 </tspan>
<tspan x="10" y="1386">  │ │ │ │ ├── assert-plus@1.0.0 </tspan>
<tspan x="10" y="1402">  │ │ │ │ ├── extsprintf@1.0.2 </tspan>
<tspan x="10" y="1418">  │ │ │ │ ├── json-schema@0.2.3 </tspan>
<tspan x="10" y="1434">  │ │ │ │ └── verror@1.3.6 </tspan>
<tspan x="10" y="1450">  │ │ │ └─┬ sshpk@1.13.0 </tspan>
<tspan x="10" y="1466">  │ │ │   ├── asn1@0.2.3 </tspan>
<tspan x="10" y="1482">  │ │ │   ├── assert-plus@1.0.0 </tspan>
<tspan x="10" y="1498">  │ │ │   ├── bcrypt-pbkdf@1.0.1 </tspan>
<tspan x="10" y="1514">  │ │ │   ├─┬ dashdash@1.14.1 </tspan>
<tspan x="10" y="1530">  │ │ │   │ └── assert-plus@1.0.0 </tspan>
<tspan x="10" y="1546">  │ │ │   ├── ecc-jsbn@0.1.1 </tspan>
<tspan x="10" y="1562">  │ │ │   ├─┬ getpass@0.1.7 </tspan>
<tspan x="10" y="1578">  │ │ │   │ └── assert-plus@1.0.0 </tspan>
<tspan x="10" y="1594">  │ │ │   ├── jodid25519@1.0.2 </tspan>
<tspan x="10" y="1610">  │ │ │   ├── jsbn@0.1.1 </tspan>
<tspan x="10" y="1626">  │ │ │   └── tweetnacl@0.14.5 </tspan>
<tspan x="10" y="1642">  │ │ ├── is-typedarray@1.0.0 </tspan>
<tspan x="10" y="1658">  │ │ ├── isstream@0.1.2 </tspan>
<tspan x="10" y="1674">  │ │ ├── json-stringify-safe@5.0.1 </tspan>
<tspan x="10" y="1690">  │ │ ├─┬ mime-types@2.1.15 </tspan>
<tspan x="10" y="1706">  │ │ │ └── mime-db@1.27.0 </tspan>
<tspan x="10" y="1722">  │ │ ├── oauth-sign@0.8.2 </tspan>
<tspan x="10" y="1738">  │ │ ├── performance-now@0.2.0 </tspan>
<tspan x="10" y="1754">  │ │ ├── qs@6.4.0 </tspan>
<tspan x="10" y="1770">  │ │ ├── safe-buffer@5.0.1 </tspan>
<tspan x="10" y="1786">  │ │ ├── stringstream@0.0.5 </tspan>
<tspan x="10" y="1802">  │ │ ├─┬ tough-cookie@2.3.2 </tspan>
<tspan x="10" y="1818">  │ │ │ └── punycode@1.4.1 </tspan>
<tspan x="10" y="1834">  │ │ ├── tunnel-agent@0.6.0 </tspan>
<tspan x="10" y="1850">  │ │ └── uuid@3.0.1 </tspan>
<tspan x="10" y="1866">  │ ├── semver@4.3.6 </tspan>
<tspan x="10" y="1882">  │ └─┬ tar@2.2.1 </tspan>
<tspan x="10" y="1898">  │   ├── block-stream@0.0.9 </tspan>
<tspan x="10" y="1914">  │   ├─┬ fstream@1.0.11 </tspan>
<tspan x="10" y="1930">  │   │ ├── graceful-fs@4.1.11 </tspan>
<tspan x="10" y="1946">  │   │ ├─┬ mkdirp@0.5.1 </tspan>
<tspan x="10" y="1962">  │   │ │ └── minimist@0.0.8 </tspan>
<tspan x="10" y="1978">  │   │ └─┬ rimraf@2.6.1 </tspan>
<tspan x="10" y="1994">  │   │   └─┬ glob@7.1.1 </tspan>
<tspan x="10" y="2010">  │   │     ├── fs.realpath@1.0.0 </tspan>
<tspan x="10" y="2026">  │   │     ├─┬ inflight@1.0.6 </tspan>
<tspan x="10" y="2042">  │   │     │ └── wrappy@1.0.2 </tspan>
<tspan x="10" y="2058">  │   │     └── once@1.4.0 </tspan>
<tspan x="10" y="2074">  │   └── inherits@2.0.3 </tspan>
<tspan x="10" y="2090">  ├─┬ fis-command-release@0.13.0 </tspan>
<tspan x="10" y="2106">  │ ├── async@0.9.0 </tspan>
<tspan x="10" y="2122">  │ ├─┬ chokidar@1.4.3 </tspan>
<tspan x="10" y="2138">  │ │ ├─┬ anymatch@1.3.0 </tspan>
<tspan x="10" y="2154">  │ │ │ ├── arrify@1.0.1 </tspan>
<tspan x="10" y="2170">  │ │ │ └─┬ micromatch@2.3.11 </tspan>
<tspan x="10" y="2186">  │ │ │   ├─┬ arr-diff@2.0.0 </tspan>
<tspan x="10" y="2202">  │ │ │   │ └── arr-flatten@1.0.3 </tspan>
<tspan x="10" y="2218">  │ │ │   ├── array-unique@0.2.1 </tspan>
<tspan x="10" y="2234">  │ │ │   ├─┬ braces@1.8.5 </tspan>
<tspan x="10" y="2250">  │ │ │   │ ├─┬ expand-range@1.8.2 </tspan>
<tspan x="10" y="2266">  │ │ │   │ │ └─┬ fill-range@2.2.3 </tspan>
<tspan x="10" y="2282">  │ │ │   │ │   ├── is-number@2.1.0 </tspan>
<tspan x="10" y="2298">  │ │ │   │ │   ├─┬ isobject@2.1.0 </tspan>
<tspan x="10" y="2314">  │ │ │   │ │   │ └── isarray@1.0.0 </tspan>
<tspan x="10" y="2330">  │ │ │   │ │   ├── randomatic@1.1.6 </tspan>
<tspan x="10" y="2346">  │ │ │   │ │   └── repeat-string@1.6.1 </tspan>
<tspan x="10" y="2362">  │ │ │   │ ├── preserve@0.2.0 </tspan>
<tspan x="10" y="2378">  │ │ │   │ └── repeat-element@1.1.2 </tspan>
<tspan x="10" y="2394">  │ │ │   ├─┬ expand-brackets@0.1.5 </tspan>
<tspan x="10" y="2410">  │ │ │   │ └── is-posix-bracket@0.1.1 </tspan>
<tspan x="10" y="2426">  │ │ │   ├── extglob@0.3.2 </tspan>
<tspan x="10" y="2442">  │ │ │   ├── filename-regex@2.0.0 </tspan>
<tspan x="10" y="2458">  │ │ │   ├─┬ kind-of@3.2.0 </tspan>
<tspan x="10" y="2474">  │ │ │   │ └── is-buffer@1.1.5 </tspan>
<tspan x="10" y="2490">  │ │ │   ├─┬ normalize-path@2.1.1 </tspan>
<tspan x="10" y="2506">  │ │ │   │ └── remove-trailing-separator@1.0.1 </tspan>
<tspan x="10" y="2522">  │ │ │   ├─┬ object.omit@2.0.1 </tspan>
<tspan x="10" y="2538">  │ │ │   │ ├─┬ for-own@0.1.5 </tspan>
<tspan x="10" y="2554">  │ │ │   │ │ └── for-in@1.0.2 </tspan>
<tspan x="10" y="2570">  │ │ │   │ └── is-extendable@0.1.1 </tspan>
<tspan x="10" y="2586">  │ │ │   ├─┬ parse-glob@3.0.4 </tspan>
<tspan x="10" y="2602">  │ │ │   │ ├── glob-base@0.3.0 </tspan>
<tspan x="10" y="2618">  │ │ │   │ └── is-dotfile@1.0.2 </tspan>
<tspan x="10" y="2634">  │ │ │   └─┬ regex-cache@0.4.3 </tspan>
<tspan x="10" y="2650">  │ │ │     ├── is-equal-shallow@0.1.3 </tspan>
<tspan x="10" y="2666">  │ │ │     └── is-primitive@2.0.0 </tspan>
<tspan x="10" y="2682">  │ │ ├── async-each@1.0.1 </tspan>
<tspan x="10" y="2698">  │ │ ├── glob-parent@2.0.0 </tspan>
<tspan x="10" y="2714">  │ │ ├─┬ is-binary-path@1.0.1 </tspan>
<tspan x="10" y="2730">  │ │ │ └── binary-extensions@1.8.0 </tspan>
<tspan x="10" y="2746">  │ │ ├─┬ is-glob@2.0.1 </tspan>
<tspan x="10" y="2762">  │ │ │ └── is-extglob@1.0.0 </tspan>
<tspan x="10" y="2778">  │ │ ├── path-is-absolute@1.0.1 </tspan>
<tspan x="10" y="2794">  │ │ └─┬ readdirp@2.1.0 </tspan>
<tspan x="10" y="2810">  │ │   ├─┬ minimatch@3.0.3 </tspan>
<tspan x="10" y="2826">  │ │   │ └─┬ brace-expansion@1.1.7 </tspan>
<tspan x="10" y="2842">  │ │   │   ├── balanced-match@0.4.2 </tspan>
<tspan x="10" y="2858">  │ │   │   └── concat-map@0.0.1 </tspan>
<tspan x="10" y="2874">  │ │   ├─┬ readable-stream@2.2.9 </tspan>
<tspan x="10" y="2890">  │ │   │ ├── buffer-shims@1.0.0 </tspan>
<tspan x="10" y="2906">  │ │   │ ├── core-util-is@1.0.2 </tspan>
<tspan x="10" y="2922">  │ │   │ ├── isarray@1.0.0 </tspan>
<tspan x="10" y="2938">  │ │   │ ├── process-nextick-args@1.0.7 </tspan>
<tspan x="10" y="2954">  │ │   │ ├── string_decoder@1.0.0 </tspan>
<tspan x="10" y="2970">  │ │   │ └── util-deprecate@1.0.2 </tspan>
<tspan x="10" y="2986">  │ │   └── set-immediate-shim@1.0.1 </tspan>
<tspan x="10" y="3002">  │ └─┬ livereload-server-spec@0.2.3 </tspan>
<tspan x="10" y="3018">  │   ├── debug@0.7.4 </tspan>
<tspan x="10" y="3034">  │   ├─┬ livereload-protocol@0.2.2 </tspan>
<tspan x="10" y="3050">  │   │ └── debug@0.7.4 </tspan>
<tspan x="10" y="3066">  │   └─┬ websocket.io-spec@0.2.1 </tspan>
<tspan x="10" y="3082">  │     └─┬ ws-spec@0.4.20 </tspan>
<tspan x="10" y="3098">  │       └── options@0.0.6 </tspan>
<tspan x="10" y="3114">  ├─┬ fis-command-server@0.7.9 </tspan>
<tspan x="10" y="3130">  │ ├── qrcode-terminal@0.10.0 </tspan>
<tspan x="10" y="3146">  │ ├── resolve@1.1.6 </tspan>
<tspan x="10" y="3162">  │ ├── step@0.0.5 </tspan>
<tspan x="10" y="3178">  │ └── tar@2.1.1 </tspan>
<tspan x="10" y="3194">  ├─┬ fis-deploy-default@0.1.3 </tspan>
<tspan x="10" y="3210">  │ └─┬ prompt@1.0.0 </tspan>
<tspan x="10" y="3226">  │   ├── colors@1.1.2 </tspan>
<tspan x="10" y="3242">  │   ├── pkginfo@0.4.0 </tspan>
<tspan x="10" y="3258">  │   ├─┬ read@1.0.7 </tspan>
<tspan x="10" y="3274">  │   │ └── mute-stream@0.0.7 </tspan>
<tspan x="10" y="3290">  │   ├── revalidator@0.1.8 </tspan>
<tspan x="10" y="3306">  │   ├─┬ utile@0.3.0 </tspan>
<tspan x="10" y="3322">  │   │ ├── async@0.9.2 </tspan>
<tspan x="10" y="3338">  │   │ ├── deep-equal@0.2.2 </tspan>
<tspan x="10" y="3354">  │   │ ├── i@0.3.5 </tspan>
<tspan x="10" y="3370">  │   │ └── ncp@1.0.1 </tspan>
<tspan x="10" y="3386">  │   └─┬ winston@2.1.1 </tspan>
<tspan x="10" y="3402">  │     ├── async@1.0.0 </tspan>
<tspan x="10" y="3418">  │     ├── colors@1.0.3 </tspan>
<tspan x="10" y="3434">  │     ├── cycle@1.0.3 </tspan>
<tspan x="10" y="3450">  │     ├── eyes@0.1.8 </tspan>
<tspan x="10" y="3466">  │     ├── pkginfo@0.3.1 </tspan>
<tspan x="10" y="3482">  │     └── stack-trace@0.0.9 </tspan>
<tspan x="10" y="3498">  ├─┬ fis-kernel@2.0.19 </tspan>
<tspan x="10" y="3514">  │ └── iconv-lite@0.2.10 </tspan>
<tspan x="10" y="3530">  ├─┬ fis-optimizer-clean-css@0.0.9 </tspan>
<tspan x="10" y="3546">  │ └─┬ clean-css@1.1.7 </tspan>
<tspan x="10" y="3562">  │   └── commander@2.0.0 </tspan>
<tspan x="10" y="3578">  ├─┬ fis-optimizer-png-compressor@0.1.6 </tspan>
<tspan x="10" y="3594">  │ ├── node-pngcrush@0.3.7 </tspan>
<tspan x="10" y="3610">  │ └── node-pngquant-native@1.0.4 </tspan>
<tspan x="10" y="3626">  ├─┬ fis-optimizer-uglify-js@0.1.14 </tspan>
<tspan x="10" y="3642">  │ └─┬ uglify-js@2.4.15 </tspan>
<tspan x="10" y="3658">  │   ├── async@0.2.9 </tspan>
<tspan x="10" y="3674">  │   ├─┬ optimist@0.3.7 </tspan>
<tspan x="10" y="3690">  │   │ └── wordwrap@0.0.3 </tspan>
<tspan x="10" y="3706">  │   ├─┬ source-map@0.1.34 </tspan>
<tspan x="10" y="3722">  │   │ └── amdefine@1.0.1 </tspan>
<tspan x="10" y="3738">  │   └── uglify-to-browserify@1.0.2 </tspan>
<tspan x="10" y="3754">  ├── fis-packager-map@0.0.9 </tspan>
<tspan x="10" y="3770">  ├── fis-postprocessor-jswrapper@0.0.12 </tspan>
<tspan x="10" y="3786">  ├── fis-prepackager-derived@0.0.3 </tspan>
<tspan x="10" y="3802">  ├── fis-preprocessor-components@1.0.19 </tspan>
<tspan x="10" y="3818">  └─┬ fis-spriter-csssprites@0.3.11 </tspan>
<tspan x="10" y="3834">    └─┬ images@3.0.0 </tspan>
<tspan x="10" y="3850">      └── nan@2.6.2</tspan>
</text>
</svg>
